<svg id="Capa_1" enable-background="new 0 0 512 512" height="10" viewBox="0 0 512 512" width="15" xmlns="http://www.w3.org/2000/svg"><g><path d="m90 256c0-24.813-20.187-45-45-45s-45 20.187-45 45 20.187 45 45 45 45-20.187 45-45zm-45 15c-8.271 0-15-6.729-15-15s6.729-15 15-15 15 6.729 15 15-6.729 15-15 15z"/><path d="m437 211h-272c-41.355 0-75 33.645-75 75v15h-90v180h30v-30h452v30h30c0-9.59 0-186.088 0-195 0-41.355-33.645-75-75-75zm-407 120h452v30h-452zm452 90h-452v-30h452zm-362-120v-15c0-24.813 20.187-45 45-45h272c24.813 0 45 20.187 45 45v15z"/><path d="m246.729 121h84.271v-30h-35.729l30-60h-84.271v30h35.729z"/><path d="m126.729 181h84.271v-30h-35.729l30-60h-84.271v30h35.729z"/></g></svg>